<?xml version="1.0" encoding="UTF-8"?><svg xmlns="http://www.w3.org/2000/svg" viewBox="0 0 198.43 198.43"><defs><style>.cls-1{fill:#fff;}.cls-1,.cls-2{stroke-width:0px;}.cls-2{fill:#1d1d1b;}</style></defs><g id="HG_positiv"><rect class="cls-1" width="198.43" height="198.43"/></g><g id="Icon_positv"><path class="cls-2" d="m110.48,71.35c-.58-.2-1.53-.61-2.61-.66l-2.31.04c-.65.08-1.58.73-1.58.73-1.12.3-1.03-.97-1.03-.97.5-.67.56-.86,2.58-1.46l2.67-.19c-.12-.22.16-.78.16-.78-4.98.02-6.54,2.14-6.85,2.45-.14.14-.99,1.22-.99,1.43,0,.07.94.19.94.19l.28-.57c.36.06.87-.02.87.34.01.85-.64.51-.63,1.5h-.58c-.87.03-1.81-.24-1.79.75,0,.28-.06.64.02,1.06l1.59.04-.22-.56s.07-.36.06-.57l.65-.29c.87.12,1.22,2.01,3.02,1.7.07-.01-.04-.62-.04-.62-1.67-.32-1.75-1.24-1.75-1.24,1.2-1.93,3.22-1.97,3.22-1.61l-.2.85c.03,1.9.49,3.59,2.73,3.55,1.59-.03,2.87-.9,3.29-2.25.36.2.69.66.88,1.11.3.7.01.77.02,1.34,0,.21-.86.16-.56,1.14l1.09.05.84-1.36c-.03-1.76-1.88-4.48-3.77-5.15Zm-1.52,3.98c-2.38.18-1.99-2.29-1.63-2.58,0,0-.32,2.55,1.99,2.29l-.36.29Zm-.41-1.89v-.77s1.36-.03,1.36-.03v.78s-1.36.02-1.36.02Z"/><path class="cls-2" d="m114.59,71.61c-.26.15-.63.66-.63.66,1.09,4.92,4.34,5.07,4.34,5.07l.63-.66s-3.25-.15-4.34-5.07Z"/><path class="cls-2" d="m118.57,66.19c-.88-1.11-1.32-1.1-2.13-2.15-.44-.63-1.18-2.65-1.95-2.71-2.39-.17-4,1.26-5.22,1.36-.66.05.49-.78.49-.78.21-.64-4.2-.84-4.2-.84,0,0-3.25,0-3.44,1.48v.56s2.71.45,2.71.45c1.16.33,1.37-.1,2.75.09l2.53-.05,2.24-.68,1.19.11c.36,0,.71.5.85.77.82,1.61,1.68,1.8,2.9,2.98,2.31,2.22,2.34,3.12,3.33,2.69-.15-.17-1.49-2.58-2.04-3.28Z"/><path class="cls-2" d="m161.77,89.59c.08-8.05-4.81-5.35-6.47-9.45-1.58-3.89,1.32-7.73-1.96-10.52-1.17-.99-2.22-1.02-3.53-1.86-3.49-2.21-6.07-5.23-7.41-7.37-1.3-2.07.1-4.15-1.23-6.31-.71-1.15-1.79-1.37-2.33-2.6-.55-1.25.63-2.43-.27-3.45-1.51-1.71-2.92-3.08-4.14-6.91-3.7-11.67-8.45-10.15-9.48-10.82-2.85-1.84-7.77-4.08-11.38-5.04-4.23-1.12-6.77-1.49-10.03-1.56-5.06-.1-6.05,1.65-6.81,1.58-9.93-.85-14.52,2.2-20.27,5.09-7.16,3.59-11.07,10.06-12.89,15.91-.9,2.91-1.72,4.51-2.77,7.51-.66,1.86-1.77,3.1-3.33,3.93-1.42.75-2.4,1.57-4.35,1.63-1.66.06-3.83.95-4.27,1.84l.11,3.23s.94-.28,2.47-1.7c1.19-1.1,2.24.06,4.93.39,6.29.2,9.74-3.69,10.1-4.52.54-1.15,0-4.31.7-4.83l1.01-.04c-.23,1.89.13,4.14-1.37,6.19-1.89,2.58-4.45,3.25-5.15,3.5-4.08,1.46-6.25.88-8.3.62-2.36-.3-.17,3.4-6.91,2.66-2.27-.24-4.58,1.8-4.64,3.69-.07,2.02.14,9.67.37,10.18l3.31,2.9s-.75-3.76,1.74-2.68c3.48,1.51,9.47.06,10.04-.38-1.26,1.17-1.43,2.48-2.4,3.72-2.15,2.62-6.54,4.1-5.48,8.84,2.21,9.88-2.39,9.37-2.39,9.37-2.88.1-5-4-5-4l.21,4.37c-.04,2.26,4.28,7.33,7.27,6.09l1.96,3.83c7.07,1.16.05,6.53.12,8.5l2.94,6.16c.15-.5.45-6.51,3.35-6.25,2.73.24,2.98,2.71,2.98,2.71-5,3.76,1.04,9.95,4.6,11.84,0,0,.45-.81,1.25-.98-1.76-.65-2.87-1.96-2.53-3.18.35-1.26.62-1.05,1.65-1.38,1.31-.42,1.66-.06,2.87-.67,1.28-.65,1.75,1.17,2.92.82.87-.26,2.21-1.38,3.45-2.21-2.19,2.83-4.1,6.87-8.24,12.39-.8,1.07-.88,9.66-.46,17.93l.07,1.35c.38,6.63,1.06,12.77,1.93,14.33.11.19-.56.28,3.73-6.17l1.05-1.61c4.62-7.31,11.11-16.15,17.31-21.87l1.39-8.69c.35.07.72.11,1.1.1l-.96,8.59c1.84.51,5.17,4.94,13.88,15.57l1.53,1.86c4.96,6.04,10.97,12.58,11.25,12.13,1.67-2.57,20.85-34.44,20.85-34.44,0,0-5.63-7.96-7.3-13.22,2.05-2.02,1.91-.06,7.26,3.42,4.14,2.7,5.79.22,5.79.22,0,0-3.85-2.28-3.86-4.57-.03-5.07,2.06-4.9,3.14-4.76,2.56.33,1.37,2.63,1.37,2.63l2.7-.02s.88-.52,1.16-1.1c1.96-4.01-6.85-6.2-8.29-7.46-1.46-1.28-.58-3.79-.58-3.79,4.55,5.62,7.43,4.25,12.12,2.96l4.79-4.82c-5.09.6-10.56,5.16-14.49-6.54l.97-.87c2.32,4.17,4.83,5.76,7.87,5.94l7.15-7.46c-8.33,5.8-7.73-4.95-7.73-4.95,8.51-.44,10.27-3.84,10.29-5.51Zm-110.05,19.14s-.09-.35-.38-.55c3.03-.11,6.12-1.7,6-5.22,0,0,.61-.09.62.19.12,3.53-3.21,5.48-6.24,5.58Zm36.74,34.09c-13.83,15.69-19.5,26.81-19.5,26.81-1.99-9.22-1.18-27.69-1.18-27.69,0,0,5.09-7.26,9.5-13.35,1.81,5.53,8.44,6.25,10.47,7.01.68.26,1.79.21,1.79.21l-1.09,7Zm-6.01-15.66c.03.94.2,1.54.09,2.48-.24-.6-.93-1.92-.93-1.92.14-.07.66-1.71.65-1.91.24-1.42.69-2.65,1.83-3.02-.12.61-.56,1.01-1.07,2.12-.53,1.16-.6,1.3-.57,2.24Zm54.16,11.88l-18.78,31.44c-1.01-1.18-21.69-26.31-23.87-27.3l.82-6.15c25.39-2.98,30.1-16.92,30.1-16.92,0,0,1.48-2.35,1.72-1.59,3.54,10.88,10.01,20.51,10.01,20.51Zm.39-40.88c-2.16.22-3.38-1.58-3.38-1.58-2.73,4.76-5.29,1.74-5.29,1.74.02-3.39-4.31,17.23-4.97,20.39-1.24,2.34-5.89,10.77-20.21,15.04l.53-.28c1.22-.7,1.6-1.75,2.46-2.97.74-1.06,1.38-1.59,1.76-2.82.08-.25-.21-.7-.54-1.26.64-.02,2.73-1.84,3.35-2.47,1.87-1.88,3.48-2.95,5.13-4.88,2.13-2.56,4.09-3.98,5.65-6.52,1.08-1.79,1.46-3.14,1.75-5.37.46-3.24,1.89-7.33,2.06-10.76-1.08,1.92-1.53,3.28-1.91,4.77-.63,2.37-.73,3.79-1.37,5.96-.64,2.17-.87,3.86-2.24,5.46-1.17,1.38-2.42,2.37-3.75,3.36-3.76,2.85-6.21,7.15-11.47,8.24-2.58-1.92-5.84-3.85-6.74-3.74,0,0-1.16.32-1.87.35l-.3,1.85s1.04.42,1.02.18c-.11-1.13.89-1.21.84-.67-.05.57.87,4.06-.59,5.88-.26.33.12-4.8-1.45-4.19l-.57,2.35-.72.03s.13-.5.08-1.98c-.05-1.43-.47-2.64-2.68-3.76-.47-.24-.5,2.89-.95,3.39l-1.64.76c-.3-1.02-.73-2.38-.23-2.39,1.52-.05.83-1.32,1.22-2.23.25-.58.68-.74.58-1.51-.4-3.09.06-6.94-.45-6.92-.42.02-.77.24-1.08-.03-.32-.28-.04-1.06-.04-1.06-1.58.2-.92,6.74-.92,6.74-.66.93-2.04,1.85-2.7,2.51,0,0-.49.37-.59.33-1.86-.01-3.75,3.15-3.75,3.15-.71.16-3.19-4.27-3.3-4.19-.34-1.47.3-.48-.85-3.66-.18-1.2-1.5-6.07-1.69-6.35-2.63-2.67-2.34-14.46-3.47-17.43-.68-1.78-3.07-2.36-3.31-4.46-.42-3.69.2-5.31.85-8.64.18-.95.03-1.57.49-2.44.53-1,1.12-1.82,2.3-1.88,1.08-.05,1.31,1.01,2.22,1.55.79.46,1.15,1.02,2.06,1.13,3.34.38,3.01-.67,3.01-.67l1.63-.9c-.52-.34-1.35.25-2.23.29-.99.04-1.6.11-2.54-.19-.96-.32-2.76-.91-2.01-1.55.52-.45.82.82,1.81.08,0,0-1.6-1.36-1.1-2.43-.32-.32.16-.76.54-1.01.33-.21.72-.24,1-.25,0,0-.4,1.48-.06,2.33.39.96,1.09,1.44,2.15,1.69.66.16,1.09.08,1.73-.13.94-.31,1.64-.69,1.82-1.69.11-.61.04-.99.23-1.56,0,0,.61.9,1.21,1.44.38.34,0,.83.26,1.26.19.3.39.43.74.54.49.15.9.12,1.71-.62.14-.27.23-.41.05-.78-.39-.76-.91.74-3.56-2.49-.6-.73-1.27-.81-2.2-1.05-1.12-.29-1.75-.36-2.97-.18-.32.12-.4-.02-.74-.61,0,0,.3-.37.56-.51,1.47-.8,3.54.09,4.31-.57-1.16-.24-.61-.51-1.11-.6-1.67-.29-1.23-.17-3.83-.08,0,0-1.51.26-2.42,1.07-.8.71-1.74,1.9-1.74,1.9-.35.19-.64-.56-.75-.68,0,0,.85-1.97,1.85-2.89,1.03-.95,1.98-1.2,3.19-1.74,1.09-.48,1.87.11,3.05.32,1.28.22,1.83.5,3.21.88.94.25.8,1.42,1.72,1.78.24.09.47-.05.65.12.21.19.14.49-.05.71-.4.46-1-.1-1.6-.3-.35-.12-.44-.41-.81-.47-.25-.04-.39.06-.65.09-.87.11,1.11.76,1.71,1.35.71.7.61,1.67,1.59,1.99.45.15.82-.14,1.23.1.5.29.5.77.55,1.32.02.23.03.44.01.63-.04,1.59-1.21,2.12-1.52,2.45-1.1,1.18-.5,6.27-.35,8.48,0,0-2.83,4.94-.89,7.43.6.77.6.79,2.22,2.21,0,0-1.16,3.35-2.02,3.57-.79-.17-5.14,1.37-6.04,4.36l-.12.81c.01.31-2.24.46-3.9-1.07-.46-.42-.79,3.08-.08,5,.32.93.81,2.66,3.22,2.04.82-.05,2.53-.38,3.11-1.05.15.15,4.09,2.35,5.74,2.29,2.15-.08,3.01-1.41,3-1.71,0,0-.87-.04-1.88.07-3.5.37-3.23-1.58-3.23-1.58,1.34-.82,1.48-1.02,3.12-.77,1.32.2,1.51.28,2.31.69.16.02.58.02.79-.05,1.06-.37,2.18-1.08,4.66-.66.57.09,2.51,1.35,4.59.54l-.6-.25,1.07.03-.48.22c1.16.44.63-.12,2-.07,1.81.08,1.08,4.13,5.54,3.48,2.01-.29,1.62-7.54,1.62-7.54l-.94.03c.01,2.47-.78,4.13-1.43,4.18-1.44.12-1.44-1.54-4.38-2.78,0,0-1-1.28.37-1.12,1.09.13,1.2,2.11,3.92,1.48l.02-2.21c-4.12.15-4.08-3.73-8.48-3.65-1.48.02.48,1.25-1.32,1.39-1.22.09-.57-.68-2.7-.33-.58.09-1.51-1.35-1.38-2.25.12-.85.93-.26,1.12-1.1,0,0-1.03-3.02,1-2.88.98.07,2.77,2.87,3.74-.41.51-.02-.44-.12-.44-.12-.25-.23-.18,1.07-.99.67-1.32-.66-.84-1.24-2.93-1.03-3.04.31-2.16,3.3-3.01,2.72-4.52-3.09-6.46-4.79-3.68-10.11l.4,1.04c-.18-3.17-.58-8.45.08-10.03.28-.67.4-1.93.56-2.92.52-3.13.49-6.78-.62-7.17-3.48-1.22-2.64-4.43-6.23-4.85l-6.58.19s-.92-3.76,3.37-5.04c0,0-.5-5.07.93-6.39,1.12-1.03,3.18.03,2.34-3.33-.15-.61-.56-.58-.9-.96-.79-.89-1.17-.39-1.96-2.33-.51-1.24,2.34-3.19,2.34-3.19,10.03,1.63,13.42-7.08,13.42-7.08,3.72,6.71,12.04,5.96,12.04,5.96,2.01.07,4.16.12,6.1,2.48,1.33,1.61,1.61,2.81,3.72,3.9,2.19,1.13,4-.27,4-.27-2.3-.19-3.91-1.43-4.89-3.34-3.55-6.93-6.96-6.54-7.92-6.25.86-.4.8-1.26,3.85-.85,4.44.6,6.61,8.05,9.46,8.41,4.35.55,4.24,1.32,3.23,5.31-1.27,4.99-1.5,9.55-.04,15.39.88,3.54,3.46,4.98,3.77,8.62.49,5.77-2,7.58-.1,13.7,1.3,4.19-.84,8.92,3.86,11.16l.55-.73c-4.57-2.52-1.67-6.44-1.67-6.44-.05,6.92,5.6,7.29,5.6,7.29-1.87-1.28-.37-2.25-.37-2.25,2.43-.79,3.77,3.62.72,3.93Zm-59.47-26.47s.72.29.96.67c.15.24.17.7.17.7-.38.58-1.83-.64-1.13-1.37Zm2.9.18h.43s-.4.92-.4.92l-.03-.92Zm9.08,28.4c.76-.8.31-1.44.81-1.37.65.09,1.08,1.33,1.08,1.33,0,0,.04.51.83,1.23.84.78,3.29.89,4.42,1.41l2.34,2.68c-1.12-.14-2.06-.7-2.79-1.12-3.26-2.06-5.64.53-5.64.53-2.15-2.01-3.06-1.51-6.93.51-1.07.56-1.73-.34-.66-.52.3-.15,1.49-2.46,2.31-2.66,1.28-.31,3.12-.88,4.23-2.03Z"/><path class="cls-2" d="m119.15,71.19c-.33-.1-.81-1.34-1.23-1.82l-.9.16c.38,1.12,1.69,1.45,1.42,2.37-.05.15.94.34,1.37.05,0-.56-.08-.7-.17-1.34l-.5.57Z"/><path class="cls-2" d="m120.62,69.46s0,0-.01,0c.01.01.02.02.01,0Z"/><path class="cls-2" d="m95.17,109.26c-.29.01-.4.68-.63.52-.59-.4-1.26-1.02-1.29-1.86l-1.8.06c-.02-.49-1.14-.19-.97.48.22,0,1.07.08,1.06-.06.75.82,1.55.86,1.85,1.42.46.83.21,1.76.87,2.16.16-1.7,1.68-1.4,1.64-2.6,0-.21-.51-.12-.73-.12Z"/><path class="cls-2" d="m98.86,88.66l-.57-1.96-.65.02c.04.42.18.65.33,1.05.23.61-.26.93.84,1.45l.07,1.98h.62s-.09-2.6-.09-2.6l-.55.06Z"/><polygon class="cls-2" points="103.56 76.83 103.57 77.46 104.58 77.44 104.6 78.37 105.17 78.36 105.06 76.8 103.56 76.83"/><path class="cls-2" d="m98.39,69.67l.72-.08c.29,0,.35-.92.63-1.49.07-.14,1-.86,1.72-1.02,1.01-.16,2.16-.39,3.53-.42v-.85s-1.67.03-1.67.03l-.58-.27.35-.85c-.07-.14-.29-.32-.51-.34-.65-.06-1.13,1.64-2.79,1.82-2.23.23-3.06-1.5-3.8-2.96.07-.14-.24-1.48-.32-1.62l-.57.29c.04,2.33.95,5.06,3.27,5.8l.03,1.98Z"/></g></svg>